<svg xmlns="http://www.w3.org/2000/svg" version="1.1" xmlns:xlink="http://www.w3.org/1999/xlink" xmlns:svgjs="http://svgjs.dev/svgjs" width="1440" height="560" preserveAspectRatio="none" viewBox="0 0 1440 560"><g mask="url(&quot;#SvgjsMask1608&quot;)" fill="none"><path d="M877.4346040088344 399.7578999440645L810.4687037699648 488.62465108120546 977.251780595111 544.6401258709394z" fill="rgba(220, 38, 38, 0.7)" class="triangle-float3"></path><path d="M191.546323369402 154.03015611568443L123.82317481665142 64.15850252492699 33.95152122589397 131.88165107767756 101.67466977864454 221.75330466843502z" fill="rgba(220, 38, 38, 0.7)" class="triangle-float2"></path><path d="M873.5577333158045 494.09180968182727L857.8977861655554 345.097365160493 708.9033416442211 360.7573123107421 724.5632887944703 509.7517568320764z" fill="rgba(220, 38, 38, 0.7)" class="triangle-float3"></path><path d="M1331.7121388762498 213.723399277417L1297.6718342863292 350.2516038984239 1434.200038907336 384.2919084883447 1468.2403434972566 247.76370386733777z" fill="rgba(220, 38, 38, 0.7)" class="triangle-float3"></path><path d="M290.4683994301433 185.84642460760168L419.3625205512207 266.55931507485303 426.32014958328557 133.79984449151732z" fill="rgba(220, 38, 38, 0.7)" class="triangle-float2"></path><path d="M1298.6134770453457 442.85471621733814L1213.5528776414203 345.0036899637802 1115.7018513878625 430.0642893677055 1200.7624507917876 527.9153156212635z" fill="rgba(220, 38, 38, 0.7)" class="triangle-float3"></path><path d="M-4.826133560665411 276.042004335826L46.31446919704564 390.9056787692724 161.17814363049206 339.76507601156135 110.037540872781 224.90140157811493z" fill="rgba(220, 38, 38, 0.7)" class="triangle-float1"></path><path d="M329.6428219952919 371.44288893116624L477.2145020473986 314.79542836940914 420.5670414856414 167.22374831730244 272.99536143353475 223.87120887905957z" fill="rgba(220, 38, 38, 0.7)" class="triangle-float3"></path><path d="M526.7161357989714 153.0029192954694L370.35383292263487 99.16306073758473 472.87627724108677 309.36522217180595z" fill="rgba(220, 38, 38, 0.7)" class="triangle-float3"></path><path d="M170.09891028309852 14.806072337502577L153.9269864569492 98.00340800328493 237.12432212273157 114.17533182943421 253.29624594888088 30.97799616365188z" fill="rgba(220, 38, 38, 0.7)" class="triangle-float1"></path><path d="M316.20498391475036 87.02641864823948L463.885897330302 55.78294359093519 377.31643899689186-43.80382630605524z" fill="rgba(220, 38, 38, 0.7)" class="triangle-float3"></path><path d="M1176.1970431919272 229.09760480718725L1206.1374104014278 311.3580876454703 1314.557951054102 225.31729541207758z" fill="rgba(220, 38, 38, 0.7)" class="triangle-float2"></path><path d="M816.2836561823234 404.3673945792851L756.5397028500241 312.17754589640884 711.4557420636137 396.96814411004726z" fill="rgba(220, 38, 38, 0.7)" class="triangle-float2"></path><path d="M707.0619559592054 225.5812539908859L802.1518919816759 278.29046623020594 759.7711681985254 130.4913179684154z" fill="rgba(220, 38, 38, 0.7)" class="triangle-float3"></path><path d="M518.8342746320808 273.8599207805731L598.7645911360047 269.6709503952118 552.5159773060008 151.86996083200648z" fill="rgba(220, 38, 38, 0.7)" class="triangle-float1"></path><path d="M1411.1215136259782 126.65615299664515L1301.9442409619705 252.25023825587357 1427.538326221199 361.4275109198813 1536.7155988852066 235.83342566065284z" fill="rgba(220, 38, 38, 0.7)" class="triangle-float2"></path><path d="M447.7923820445321 484.8009378792922L487.84214031476034 406.1988615552003 369.1903057204402 444.7511796090639z" fill="rgba(220, 38, 38, 0.7)" class="triangle-float3"></path><path d="M1099.3499870352907 412.2190194382854L1129.461657626233 281.7910447392268 999.0336829271745 251.6793741482844 968.9220123362321 382.107348847343z" fill="rgba(220, 38, 38, 0.7)" class="triangle-float1"></path></g><defs><mask id="SvgjsMask1608"><rect width="1440" height="560" fill="#ffffff"></rect></mask><style>
                @keyframes float1 {
                    0%{transform: translate(0, 0)}
                    50%{transform: translate(-10px, 0)}
                    100%{transform: translate(0, 0)}
                }

                .triangle-float1 {
                    animation: float1 5s infinite;
                }

                @keyframes float2 {
                    0%{transform: translate(0, 0)}
                    50%{transform: translate(-5px, -5px)}
                    100%{transform: translate(0, 0)}
                }

                .triangle-float2 {
                    animation: float2 4s infinite;
                }

                @keyframes float3 {
                    0%{transform: translate(0, 0)}
                    50%{transform: translate(0, -10px)}
                    100%{transform: translate(0, 0)}
                }

                .triangle-float3 {
                    animation: float3 6s infinite;
                }
            </style></defs></svg>