<svg xmlns="http://www.w3.org/2000/svg" version="1.1" xmlns:xlink="http://www.w3.org/1999/xlink" xmlns:svgjs="http://svgjs.dev/svgjs" width="1440" height="560" preserveAspectRatio="none" viewBox="0 0 1440 560"><g mask="url(&quot;#SvgjsMask1050&quot;)" fill="none"><rect width="1440" height="560" x="0" y="0" fill="rgba(30, 30, 30, 1)"></rect><path d="M366.0581170649848 158.83765039563878L317.0358907514844 293.52511024337537 500.7455769127214 207.8598767091392z" fill="rgba(220, 38, 38, 0.7)" class="triangle-float3"></path><path d="M1097.415659236812 194.1364195570186L1212.1763574894421 218.5295589924485 1236.569496924872 103.76886073981825 1121.808798672242 79.37572130438834z" fill="rgba(220, 38, 38, 0.7)" class="triangle-float2"></path><path d="M1490.0595241290948 33.36791369872945L1341.3120270827042 30.771516479874855 1338.7156298638495 179.5190135262655 1487.4631269102401 182.11541074512013z" fill="rgba(220, 38, 38, 0.7)" class="triangle-float3"></path><path d="M908.340199757555 214.65745324496388L874.8919749730702 339.4879275636455 999.7224492917518 372.9361523481302 1033.1706740762365 248.1056780294486z" fill="rgba(220, 38, 38, 0.7)" class="triangle-float2"></path><path d="M765.8161144444373 157.8335729407441L763.7161783692605 278.13883011466964 884.021435543186 280.2387661898464 886.1213716183628 159.93350901592086z" fill="rgba(220, 38, 38, 0.7)" class="triangle-float1"></path><path d="M399.044539806036 285.12634899528916L421.0031769332483 356.9498147411747 517.7590569884704 288.1001261774135z" fill="rgba(220, 38, 38, 0.7)" class="triangle-float3"></path><path d="M-61.24792589285666 87.49954948544223L-33.168850379481796 179.34206715297847 58.673667288054446 151.26299163960363 30.594591774679586 59.42047397206737z" fill="rgba(220, 38, 38, 0.7)" class="triangle-float1"></path><path d="M1194.357331418064 533.0690780542849L1283.8710265380798 472.6913283217977 1148.5475543793414 368.6096605080175z" fill="rgba(220, 38, 38, 0.7)" class="triangle-float2"></path><path d="M-6.739408575674535 364.9073233161227L-37.13930177409121 507.9275761823231 105.88095109210919 538.3274693807398 136.28084429052586 395.3072165145394z" fill="rgba(220, 38, 38, 0.7)" class="triangle-float2"></path><path d="M-63.665624556869204 77.95096435496168L8.618088155196133 132.4206488256053 63.08777262583975 60.13693611353996-9.19594008622559 5.667251642896346z" fill="rgba(220, 38, 38, 0.7)" class="triangle-float3"></path><path d="M962.0630284354871 456.97966548782483L809.1652651340632 401.32943076022724 753.5150304064657 554.2271940616511 906.4127937078895 609.8774287892487z" fill="rgba(220, 38, 38, 0.7)" class="triangle-float1"></path><path d="M677.669373053053 495.1256583639825L836.9871972983631 430.93362932017004 720.299872358856 336.4420967079196z" fill="rgba(220, 38, 38, 0.7)" class="triangle-float3"></path><path d="M1459.648744907404 345.9267656492052L1343.186822075747 244.68796067106877 1241.9480170976105 361.14988350272597 1358.4099399292677 462.38868848086236z" fill="rgba(220, 38, 38, 0.7)" class="triangle-float1"></path><path d="M233.3246361451258 376.23357874388057L239.04780220063623 212.3435459980986 75.15776945485425 206.62037994258816 69.43460339934381 370.51041268837014z" fill="rgba(220, 38, 38, 0.7)" class="triangle-float3"></path><path d="M-7.239502775074143 345.70187541645464L-55.56577623097713 478.0845330635662 66.1104273061141 458.81291566552966z" fill="rgba(220, 38, 38, 0.7)" class="triangle-float1"></path><path d="M659.227747173571 408.7006776959274L602.0063276830315 338.0381094741609 588.5651789518045 465.92209718646694z" fill="rgba(220, 38, 38, 0.7)" class="triangle-float1"></path><path d="M677.901301208676 374.3532824036547L564.8778836652284 268.9572404575538 459.4818417191275 381.9806580010014 572.5052592625751 487.37669994710234z" fill="rgba(220, 38, 38, 0.7)" class="triangle-float1"></path><path d="M342.0022876044756 424.5004818990119L396.7625133512033 354.41058917748364 264.2475613955471 307.3151969181562z" fill="rgba(220, 38, 38, 0.7)" class="triangle-float3"></path></g><defs><mask id="SvgjsMask1050"><rect width="1440" height="560" fill="#ffffff"></rect></mask><style>
                @keyframes float1 {
                    0%{transform: translate(0, 0)}
                    50%{transform: translate(-10px, 0)}
                    100%{transform: translate(0, 0)}
                }

                .triangle-float1 {
                    animation: float1 5s infinite;
                }

                @keyframes float2 {
                    0%{transform: translate(0, 0)}
                    50%{transform: translate(-5px, -5px)}
                    100%{transform: translate(0, 0)}
                }

                .triangle-float2 {
                    animation: float2 4s infinite;
                }

                @keyframes float3 {
                    0%{transform: translate(0, 0)}
                    50%{transform: translate(0, -10px)}
                    100%{transform: translate(0, 0)}
                }

                .triangle-float3 {
                    animation: float3 6s infinite;
                }
            </style></defs></svg>